<svg width="20" height="20" viewBox="0 0 20 20" fill="none" xmlns="http://www.w3.org/2000/svg">
<path d="M10 4C6.68661 4 4 6.68661 4 10C4 13.3134 6.68661 16 10 16C13.3134 16 16 13.3134 16 10C16 6.68661 13.3134 4 10 4ZM10 14.9821C7.24911 14.9821 5.01786 12.7509 5.01786 10C5.01786 7.24911 7.24911 5.01786 10 5.01786C12.7509 5.01786 14.9821 7.24911 14.9821 10C14.9821 12.7509 12.7509 14.9821 10 14.9821ZM10.075 7.84777C10.7848 7.84777 11.267 8.30045 11.3205 8.96473C11.3246 9.02098 11.3714 9.06384 11.4277 9.06384H12.1871C12.2219 9.06384 12.25 9.03571 12.25 9.00089C12.25 7.83973 11.3339 7.02679 10.071 7.02679C8.59911 7.02679 7.75 8.02054 7.75 9.6625V10.3629C7.75 11.9929 8.59911 12.9732 10.071 12.9732C11.3299 12.9732 12.25 12.1857 12.25 11.0795C12.25 11.0446 12.2219 11.0165 12.1871 11.0165H11.4263C11.3701 11.0165 11.3246 11.0594 11.3192 11.1143C11.2629 11.7317 10.7821 12.1563 10.0737 12.1563C9.19911 12.1563 8.70625 11.5147 8.70625 10.367V9.6625C8.70759 8.49732 9.20179 7.84777 10.075 7.84777V7.84777Z" fill="#212121" fill-opacity="0.5"/>
</svg>
