<svg width="140" height="120" viewBox="0 0 140 120" fill="none" xmlns="http://www.w3.org/2000/svg">
<path d="M117.027 93.4874C123.31 87.0078 127.68 79.3264 129.767 71.0931C131.854 62.8597 131.597 54.3166 129.017 46.1865C126.438 38.0563 121.612 30.5783 114.947 24.385C108.283 18.1916 99.9762 13.4652 90.7299 10.6056C81.4837 7.74597 71.57 6.83722 61.8274 7.95622C52.0847 9.07522 42.7998 12.1891 34.7581 17.0343C26.7165 21.8796 20.1545 28.3137 15.6275 35.7924C11.1004 43.2712 8.74141 51.5745 8.75002 59.9999C8.75333 72.2481 13.7889 84.1041 22.9732 93.4874L22.8857 93.5512C23.1919 93.8662 23.5419 94.1362 23.8569 94.4474C24.2507 94.8337 24.675 95.1974 25.0819 95.5724C26.3069 96.7124 27.5669 97.8074 28.8882 98.8349C29.2907 99.1499 29.7063 99.4424 30.1131 99.7424C31.5131 100.777 32.9525 101.76 34.4444 102.675C34.6369 102.787 34.8119 102.934 35.0044 103.05V103.005C45.2511 109.186 57.4749 112.503 70.0044 112.503C82.534 112.503 94.7577 109.186 105.004 103.005V103.05C105.197 102.934 105.368 102.787 105.564 102.675C107.052 101.756 108.496 100.777 109.896 99.7424C110.303 99.4424 110.718 99.1462 111.121 98.8349C112.442 97.8037 113.702 96.7124 114.927 95.5724C115.334 95.1974 115.754 94.8337 116.152 94.4474C116.463 94.1362 116.817 93.8662 117.123 93.5474L117.027 93.4874ZM70 29.9999C73.8939 29.9999 77.7002 30.9896 80.9378 32.8439C84.1754 34.6981 86.6988 37.3336 88.1889 40.4171C89.679 43.5006 90.0689 46.8936 89.3092 50.1671C88.5496 53.4405 86.6745 56.4473 83.9212 58.8073C81.1678 61.1674 77.6599 62.7745 73.8409 63.4257C70.0219 64.0768 66.0634 63.7426 62.466 62.4654C58.8685 61.1881 55.7938 59.0252 53.6305 56.2502C51.4672 53.4751 50.3125 50.2125 50.3125 46.8749C50.3125 42.3994 52.3867 38.1072 56.0789 34.9425C59.771 31.7778 64.7786 29.9999 70 29.9999ZM35.0307 93.4874C35.1065 88.5635 37.441 83.8633 41.5291 80.4034C45.6171 76.9436 51.13 75.0024 56.875 74.9999H83.125C88.87 75.0024 94.3829 76.9436 98.471 80.4034C102.559 83.8633 104.894 88.5635 104.969 93.4874C95.3743 100.899 82.9162 105 70 105C57.0839 105 44.6257 100.899 35.0307 93.4874Z" fill="#212121"/>
</svg>
