<svg width="20" height="20" viewBox="0 0 20 20" fill="none" xmlns="http://www.w3.org/2000/svg">
<path d="M0.5 10C0.5 4.74614 4.74614 0.5 10 0.5C15.2539 0.5 19.5 4.74614 19.5 10C19.5 15.2539 15.2539 19.5 10 19.5C4.74614 19.5 0.5 15.2539 0.5 10Z" fill="#FDC754" stroke="#F8F8F8"/>
<path d="M12.0928 8.5981C12.0928 8.5981 11.9315 6.94906 10.4398 6.90306C8.94768 6.85806 8.18157 8.14009 8.18157 9.97313C8.18157 11.8057 9.02835 13.2717 10.4808 13.2717C11.9319 13.2717 12.0932 11.4392 12.0932 11.4392L14.8751 11.6217C14.8751 11.6217 15.0392 13.2767 13.8743 14.5397C12.7112 15.8017 11.2811 16.0083 10.2848 15.9998C9.28676 15.9918 7.90311 16.0173 6.56595 14.5147C5.22696 13.0097 5 11.5497 5 10.1146C5 8.6796 5.2534 6.77956 6.84441 5.33953C7.92362 4.36001 9.01969 4 10.1158 4C14.6924 4 15 8.6301 15 8.6301L12.0928 8.5981Z" fill="#F2F2F2"/>
</svg>
