<svg width="1440" height="1024" viewBox="0 0 1440 1024" fill="none" xmlns="http://www.w3.org/2000/svg">
<path d="M1440 0H0V1024H1440V0Z" fill="white"/>
<path d="M0 527.17H111V582.163H222V576.474H333V587.852H442.5V506.311H553.5V610.607H664.5V523.378H775.5V542.341H886.5V631.467H997.5V532.859H1107V538.548H1218V574.578H1329V517.689H1440V555.615V0H1329H1218H1107H997.5H886.5H775.5H664.5H553.5H442.5H333H222H111H0V527.17Z" fill="#FFDA6A"/>
<path d="M0 508.207H111V510.104H222V584.059H333V515.793H442.5V475.97H553.5V523.378H664.5V561.304H775.5V485.452H886.5V487.348H997.5V568.889H1107V504.415H1218V572.681H1329V529.067H1440V540.444V0H1329H1218H1107H997.5H886.5H775.5H664.5H553.5H442.5H333H222H111H0V508.207Z" fill="#FFD665"/>
<path d="M0 413.393H111V474.074H222V538.548H333V483.556H442.5V411.496H553.5V494.933H664.5V506.311H775.5V479.763H886.5V500.622H997.5V424.77H1107V498.726H1218V534.756H1329V457.007H1440V500.622V0H1329H1218H1107H997.5H886.5H775.5H664.5H553.5H442.5H333H222H111H0V413.393Z" fill="#FED261"/>
<path d="M0 381.156H111V447.526H222V438.044H333V373.57H442.5V451.319H553.5V474.074H664.5V485.452H775.5V479.763H886.5V400.118H997.5V398.222H1107V436.148H1218V369.778H1329V413.393H1440V436.148V0H1329H1218H1107H997.5H886.5H775.5H664.5H553.5H442.5H333H222H111H0V381.156Z" fill="#FECF5D"/>
<path d="M0 360.296H111V407.704H222V339.437H333V364.089H442.5H553.5V436.148H664.5V384.948H775.5V328.059H886.5V375.467H997.5V409.6H1107V329.956H1218V373.57H1329V392.533H1440V396.326V0H1329H1218H1107H997.5H886.5H775.5H664.5H553.5H442.5H333H222H111H0V360.296Z" fill="#FECB58"/>
<path d="M0 352.711H111V333.748H222V384.948H333V362.193H442.5V333.748H553.5V324.267H664.5V284.444H775.5V360.296H886.5V309.096H997.5V314.785H1107V352.711H1218V331.852H1329V377.363H1440V384.948V0H1329H1218H1107H997.5H886.5H775.5H664.5H553.5H442.5H333H222H111H0V352.711Z" fill="#FDC754"/>
<path d="M0 318.578H111V248.415H222V271.17H333V269.274H442.5V316.681H553.5V324.267H664.5V293.926H775.5V248.415H886.5V310.993H997.5V240.83H1107V269.274H1218V248.415H1329V263.585H1440V280.652V0H1329H1218H1107H997.5H886.5H775.5H664.5H553.5H442.5H333H222H111H0V318.578Z" fill="#FDC350"/>
<path d="M0 276.859H111V204.8H222V271.17H333V199.111H442.5V246.519H553.5V237.037H664.5V254.104H775.5V278.756H886.5V267.378H997.5V284.444H1107V278.756H1218V225.659H1329V212.385H1440V221.867V0H1329H1218H1107H997.5H886.5H775.5H664.5H553.5H442.5H333H222H111H0V276.859Z" fill="#FDBF4C"/>
<path d="M0 176.356H111V191.526H222V221.867H333V191.526H442.5V170.667H553.5V193.422H664.5V185.837H775.5V229.452H886.5H997.5V212.385H1107V193.422H1218V202.904H1329V170.667H1440V191.526V0H1329H1218H1107H997.5H886.5H775.5H664.5H553.5H442.5H333H222H111H0V176.356Z" fill="#FDBB48"/>
<path d="M0 155.496H111V163.081H222V147.911H333V163.081H442.5V161.185H553.5V127.052H664.5V136.533H775.5V127.052H886.5V161.185H997.5V136.533H1107V172.563H1218V168.77H1329V149.807H1440V157.393V0H1329H1218H1107H997.5H886.5H775.5H664.5H553.5H442.5H333H222H111H0V155.496Z" fill="#FCB744"/>
<path d="M0 125.156H111V117.57H222V115.674H333V121.363H442.5V87.2296H553.5V92.9185H664.5V119.467H775.5V130.844H886.5V91.0222H997.5V94.8148H1107V125.156H1218V68.2667H1329V91.0222H1440V81.5407V0H1329H1218H1107H997.5H886.5H775.5H664.5H553.5H442.5H333H222H111H0V125.156Z" fill="#FCB340"/>
<path d="M0 37.9259H111V66.3704H222V68.2667H333V66.3704H442.5V79.6444H553.5V28.4444H664.5V54.9926H775.5V73.9556H886.5V39.8222H997.5V58.7852H1107V56.8889H1218V47.4074H1329V77.7482H1440V62.5778V0H1329H1218H1107H997.5H886.5H775.5H664.5H553.5H442.5H333H222H111H0V37.9259Z" fill="#FCAF3C"/>
</svg>
